<svg width="156" height="175" viewBox="0 0 156 175" fill="none" xmlns="http://www.w3.org/2000/svg">
<path d="M77.5075 174.724C75.1012 174.724 72.8525 174.077 70.7525 172.957L49.4112 160.287C46.2175 158.51 47.8187 157.863 48.7812 157.539C53.1212 156.095 53.9262 155.78 58.415 153.225C58.905 152.902 59.5438 153.05 60.0338 153.374L76.3962 163.174C77.0437 163.489 77.8487 163.489 78.33 163.174L142.371 126.1C143.019 125.785 143.334 125.138 143.334 124.333V50.3253C143.334 49.5291 143.019 48.8816 142.371 48.5666L78.33 11.6503C77.6912 11.3266 76.8862 11.3266 76.3962 11.6503L12.3375 48.5578C11.6988 48.8728 11.375 49.6866 11.375 50.3166V124.315C11.375 124.954 11.6988 125.768 12.3375 126.083L29.8375 136.207C39.305 141.002 45.255 135.375 45.255 129.775V56.7478C45.255 55.7853 46.0513 54.8141 47.18 54.8141H55.37C56.315 54.8141 57.295 55.6191 57.295 56.7478V129.784C57.295 142.463 50.4 149.857 38.36 149.857C34.6675 149.857 31.78 149.857 23.59 145.832L6.74625 136.215C4.69401 135.022 2.99084 133.312 1.80698 131.254C0.62312 129.196 3.37157e-05 126.864 0 124.49V50.4828C0 45.6703 2.56375 41.1728 6.74625 38.7666L70.7612 1.69284C72.8394 0.581465 75.1596 0 77.5163 0C79.8729 0 82.1931 0.581465 84.2712 1.69284L148.295 38.7666C152.486 41.1641 155.041 45.6703 155.041 50.4828V124.49C155.041 129.294 152.477 133.792 148.295 136.215L84.2712 173.28C82.1625 174.243 79.7562 174.724 77.5075 174.724V174.724ZM97.2475 123.834C69.16 123.834 63.385 110.989 63.385 100.087C63.385 99.1241 64.19 98.1528 65.31 98.1528H73.6575C74.62 98.1528 75.4162 98.7916 75.4162 99.7628C76.7025 108.259 80.3862 112.442 97.4137 112.442C110.889 112.442 116.681 109.379 116.681 102.16C116.681 97.9866 115.063 94.9416 94.045 92.8591C76.5538 91.1091 65.6425 87.2328 65.6425 73.2766C65.6425 60.2828 76.5537 52.5741 94.8587 52.5741C115.395 52.5741 125.51 59.6528 126.787 75.0441C126.772 75.5635 126.602 76.0664 126.298 76.4878C125.974 76.8028 125.501 77.1266 125.02 77.1266H116.681C116.269 77.1178 115.872 76.972 115.551 76.7121C115.231 76.4523 115.007 76.0932 114.914 75.6916C112.98 66.8366 108.01 63.9666 94.8587 63.9666C80.08 63.9666 78.3125 69.1028 78.3125 72.9528C78.3125 77.5991 80.3862 79.0428 100.31 81.6153C120.05 84.1791 129.36 87.8716 129.36 101.688C129.185 115.819 117.644 123.834 97.2475 123.834V123.834Z" fill="#00DF5E"/>
</svg>
