<svg width="348" height="348" viewBox="0 0 348 348" fill="none" xmlns="http://www.w3.org/2000/svg">
<path d="M173.891 274.859C229.654 274.859 274.859 229.654 274.859 173.891C274.859 118.127 229.654 72.9219 173.891 72.9219C118.127 72.9219 72.9219 118.127 72.9219 173.891C72.9219 229.654 118.127 274.859 173.891 274.859Z" fill="#171717"/>
<path d="M190.719 40.8213V16.8281C190.719 7.53754 183.187 0 173.891 0C164.595 0 157.062 7.53765 157.062 16.8281V40.8213C157.062 50.1119 164.595 57.6495 173.891 57.6495C183.187 57.6495 190.719 50.1119 190.719 40.8213Z" fill="#171717"/>
<path d="M91.7001 91.6892C98.2681 85.1156 98.2681 74.4557 91.6946 67.8932L74.7295 50.9336C68.156 44.3601 57.5015 44.3601 50.928 50.9336C44.36 57.5071 44.36 68.167 50.9335 74.7295L67.8986 91.6892C71.1853 94.9759 75.4909 96.6192 79.7965 96.6192C84.1022 96.6192 88.4133 94.9759 91.7001 91.6892Z" fill="#171717"/>
<path d="M16.8281 190.719H40.8158C50.1118 190.719 57.644 183.181 57.644 173.891C57.644 164.6 50.1118 157.062 40.8158 157.062H16.8281C7.53216 157.062 0 164.6 0 173.891C0 183.181 7.53216 190.719 16.8281 190.719Z" fill="#171717"/>
<path d="M50.928 296.848C54.2148 300.134 58.5259 301.778 62.8315 301.778C67.1372 301.778 71.4428 300.134 74.7296 296.848L91.6947 279.888C98.2682 273.326 98.2682 262.665 91.7002 256.092C85.1267 249.519 74.4722 249.519 67.8987 256.092L50.9336 273.052C44.36 279.614 44.36 290.274 50.928 296.848Z" fill="#171717"/>
<path d="M157.062 306.96V330.953C157.062 340.244 164.595 347.781 173.891 347.781C183.187 347.781 190.719 340.244 190.719 330.953V306.96C190.719 297.669 183.187 290.132 173.891 290.132C164.595 290.132 157.062 297.669 157.062 306.96Z" fill="#171717"/>
<path d="M273.052 296.848C276.338 300.134 280.644 301.778 284.95 301.778C289.255 301.778 293.561 300.134 296.848 296.848C303.421 290.274 303.421 279.625 296.848 273.052L279.888 256.092C273.315 249.519 262.666 249.519 256.092 256.092C249.519 262.666 249.519 273.315 256.092 279.888L273.052 296.848Z" fill="#171717"/>
<path d="M330.953 157.062H306.96C297.669 157.062 290.132 164.6 290.132 173.891C290.132 183.181 297.669 190.719 306.96 190.719H330.953C340.244 190.719 347.781 183.181 347.781 173.891C347.781 164.6 340.244 157.062 330.953 157.062Z" fill="#171717"/>
<path d="M296.848 50.9336C290.274 44.3601 279.625 44.3601 273.052 50.9336L256.092 67.8932C249.518 74.4667 249.518 85.1158 256.092 91.6892C259.379 94.9759 263.684 96.6192 267.99 96.6192C272.296 96.6192 276.601 94.9759 279.888 91.6892L296.848 74.7295C303.421 68.1561 303.421 57.5071 296.848 50.9336Z" fill="#171717"/>
</svg>
