<svg width="213" height="80" viewBox="0 0 213 213" fill="none" xmlns="http://www.w3.org/2000/svg">
<path d="M103.062 73.3563C114.181 61.9951 128.658 54.5625 145.5 54.5625C163.187 54.5625 180.149 61.5885 192.655 74.0948C205.162 86.6011 212.188 103.563 212.188 121.25V212.188H187.938V121.25C187.937 109.995 183.466 99.2007 175.508 91.2422C167.549 83.2836 156.755 78.8125 145.5 78.8125C134.245 78.8125 123.451 83.2836 115.492 91.2422C107.534 99.2007 103.063 109.995 103.062 121.25V212.188H78.8125V60.625H103.062V73.3563ZM18.1875 36.375C13.3639 36.375 8.73781 34.4588 5.327 31.048C1.91618 27.6372 0 23.0111 0 18.1875C0 13.3639 1.91618 8.73781 5.327 5.327C8.73781 1.91618 13.3639 0 18.1875 0C23.0111 0 27.6372 1.91618 31.048 5.327C34.4588 8.73781 36.375 13.3639 36.375 18.1875C36.375 23.0111 34.4588 27.6372 31.048 31.048C27.6372 34.4588 23.0111 36.375 18.1875 36.375ZM6.0625 60.625H30.3125V212.188H6.0625V60.625Z" fill="#00DF5E"/>
</svg>
