<svg width="181" height="177" viewBox="0 0 181 177" fill="none" xmlns="http://www.w3.org/2000/svg">
<path d="M61.7668 139.901C61.7668 140.6 60.9627 141.16 59.9491 141.16C58.7949 141.264 57.9916 140.706 57.9916 139.901C57.9916 139.202 58.7952 138.642 59.8096 138.642C60.8583 138.538 61.7668 139.097 61.7668 139.901Z" fill="white"/>
<path d="M50.8947 138.327C50.6496 139.027 51.3489 139.831 52.3976 140.04C53.3068 140.39 54.3558 140.04 54.565 139.342C54.7754 138.642 54.1108 137.839 53.0621 137.523C52.1529 137.28 51.1397 137.629 50.8947 138.327Z" fill="white"/>
<path d="M66.3464 137.733C65.3327 137.978 64.6339 138.642 64.7379 139.446C64.8431 140.145 65.7523 140.601 66.801 140.356C67.815 140.111 68.5138 139.446 68.4091 138.747C68.3043 138.083 67.3604 137.629 66.3464 137.733Z" fill="white"/>
<path d="M64.5253 176.605C63.8332 176.605 63.1042 176.537 62.359 176.404C62.1788 176.371 62.0016 176.325 61.8278 176.268C24.8469 163.878 0 128.837 0 89.0703C0 64.6263 9.1332 42.0732 25.7169 25.565C42.2783 9.07892 64.8767 0 89.3496 0C113.94 0 136.919 9.06271 154.052 25.5178C171.389 42.1679 180.936 64.7379 180.936 89.0706C180.936 108.808 175.089 127.528 164.026 143.206C153.009 158.82 137.679 170.229 119.693 176.2C119.525 176.256 119.352 176.301 119.178 176.332C118.435 176.467 117.707 176.535 117.016 176.535C117.016 176.535 117.016 176.535 117.015 176.535C111.549 176.535 108.689 172.439 108.689 168.393C108.689 167.443 108.7 165.211 108.715 162.222C108.746 156.179 108.793 147.047 108.793 139.167C108.793 132.026 106.468 126.832 104.165 124.854C103.027 123.877 102.576 122.318 103.018 120.885C103.459 119.452 104.708 118.416 106.198 118.248C127.041 115.9 142.984 111.759 142.984 82.2712C142.984 74.0136 140.274 69.5053 134.938 63.6026C133.972 62.535 133.699 61.011 134.234 59.6747C134.812 58.2283 137.355 50.8891 134.078 40.8293C128.957 41.2194 119.688 46.4949 114.861 49.8668C113.936 50.5125 112.771 50.71 111.686 50.4062C105.07 48.5534 97.8303 47.5741 90.7481 47.5741C83.6666 47.5741 76.4265 48.5534 69.8102 50.4062C68.7261 50.7096 67.5628 50.5129 66.6393 49.8698C61.8015 46.5051 52.5277 41.2424 47.4139 40.8387C44.1374 50.8792 46.6838 58.2261 47.2631 59.6747C47.7992 61.0144 47.5232 62.5426 46.5526 63.6101C41.8373 68.797 39.2823 73.3068 39.2823 82.2712C39.2823 109.159 51.9049 110.303 69.3756 111.885C71.272 112.056 73.2333 112.234 75.1878 112.45C76.6576 112.614 77.8966 113.621 78.3554 115.026C78.8145 116.432 78.4096 117.977 77.3195 118.976C75.656 120.501 73.6472 124.336 72.9099 129.466C72.7282 130.73 71.9185 131.817 70.7582 132.352C68.5798 133.358 64.1672 135.045 59.0908 135.045C53.5632 135.045 45.836 133.039 40.415 123.483C37.6882 118.746 28.5003 116.815 23.9799 116.312C24.1446 116.504 24.315 116.694 24.4869 116.875C30.7469 120.244 40.3604 131.837 42.2828 134.202C42.5735 134.559 42.7962 134.967 42.9399 135.405C44.8273 141.157 50.5622 144.073 59.9861 144.072C64.5314 144.072 68.149 143.319 68.1848 143.311C69.2968 143.077 70.4578 143.355 71.3406 144.071C72.2235 144.787 72.7388 145.862 72.7388 146.999C72.7388 151.742 72.7821 158.329 72.8134 163.137C72.83 165.71 72.8432 167.696 72.8432 168.463C72.8428 172.509 69.9859 176.605 64.5253 176.605ZM63.9346 169.022C64.1476 169.051 64.3455 169.066 64.5253 169.066C65.1944 169.066 65.3037 168.981 65.3037 168.463C65.3037 167.703 65.2909 165.736 65.274 163.186C65.251 159.714 65.2223 155.317 65.208 151.347C63.7077 151.496 61.9225 151.611 59.9857 151.611C47.6401 151.612 39.1639 146.946 36.0194 138.453C31.7391 133.257 24.1506 124.983 20.6774 123.394C20.2955 123.22 19.9453 122.983 19.6415 122.693C17.8393 120.972 13.8244 116.526 15.469 112.421C16.1573 110.704 17.9584 108.657 22.6315 108.657L22.8505 108.659C22.9033 108.659 22.9564 108.661 23.0088 108.664C24.8657 108.765 41.3126 109.934 46.9589 119.743C49.9267 124.974 53.8907 127.506 59.0893 127.506C61.6805 127.506 64.0783 126.87 65.8277 126.234C66.3475 123.762 67.1297 121.414 68.1049 119.34C50.9309 117.781 31.7417 115.666 31.7417 82.2719C31.7417 71.9686 34.6748 65.9415 39.5077 60.2096C38.3143 55.9643 36.8238 46.9171 41.1659 35.9504C41.5858 34.89 42.4626 34.0773 43.5513 33.7384C44.5381 33.4316 45.6358 33.2759 46.8142 33.2759C54.3925 33.2759 65.3855 40.0038 69.4755 42.6918C76.2731 40.9514 83.5882 40.0358 90.7466 40.0358C97.9049 40.0358 105.219 40.9511 112.015 42.6911C116.102 39.9974 127.073 33.2672 134.655 33.2672C135.849 33.2672 136.961 33.4271 137.96 33.7426C139.043 34.0845 139.914 34.8964 140.331 35.9527C144.664 46.9269 143.18 55.9625 141.988 60.2054C147.296 66.432 150.523 72.5782 150.523 82.2712C150.523 98.7546 145.841 110.122 136.21 117.022C129.611 121.75 121.52 123.744 113.35 124.94C115.25 128.872 116.332 133.856 116.332 139.167C116.332 147.066 116.285 156.21 116.254 162.261C116.239 165.231 116.228 167.449 116.228 168.393C116.228 168.906 116.346 168.996 117.016 168.996C117.016 168.996 117.016 168.996 117.016 168.996C117.194 168.996 117.389 168.981 117.599 168.952C150.986 157.73 173.398 125.668 173.398 89.071C173.398 43.3522 136.48 7.53944 89.3496 7.53944C42.7099 7.53944 7.53906 42.5904 7.53906 89.071C7.53906 125.489 30.1879 157.579 63.9346 169.022Z" fill="#00DF5E"/>
<path d="M37.75 124.344C37.2954 124.694 37.4006 125.498 37.9939 126.161C38.5533 126.721 39.3577 126.965 39.812 126.512C40.2666 126.161 40.1614 125.358 39.5673 124.694C39.0087 124.134 38.2046 123.89 37.75 124.344Z" fill="white"/>
<path d="M33.9741 121.513C33.7298 121.967 34.0788 122.526 34.7781 122.876C35.3375 123.226 36.0367 123.12 36.2814 122.631C36.5256 122.177 36.1766 121.618 35.4773 121.268C34.7785 121.058 34.2187 121.163 33.9741 121.513Z" fill="white"/>
<path d="M45.3011 133.958C44.7417 134.412 44.9517 135.461 45.7554 136.125C46.5594 136.929 47.573 137.035 48.0276 136.474C48.4819 136.021 48.2723 134.972 47.573 134.308C46.804 133.504 45.7554 133.398 45.3011 133.958Z" fill="white"/>
<path d="M41.3155 128.819C40.7561 129.168 40.7561 130.077 41.3155 130.881C41.8753 131.686 42.8192 132.035 43.2734 131.686C43.8325 131.231 43.8325 130.322 43.2734 129.518C42.7838 128.714 41.8753 128.364 41.3155 128.819Z" fill="white"/>
</svg>
