<svg width="219" height="250" viewBox="0 0 219 199" fill="none" xmlns="http://www.w3.org/2000/svg">
<path d="M109.893 88.8776C118.118 88.8776 124.785 82.2099 124.785 73.985C124.785 65.76 118.118 59.0923 109.893 59.0923C101.668 59.0923 95 65.76 95 73.985C95 82.2099 101.668 88.8776 109.893 88.8776Z" fill="#00DF5E"/>
<path d="M109.363 108.102C88.4483 108.102 70.1737 105.639 56.4973 100.952C47.627 97.926 40.0917 93.8913 34.722 89.293C29.026 84.4276 26 79.1173 26 73.985C26 64.1356 36.7987 54.494 54.925 48.2046C69.7583 43.0426 89.101 40.165 109.334 40.165C129.21 40.165 148.286 42.9536 163.03 48.0563C171.663 51.023 178.932 54.8796 184.094 59.1516C189.701 63.839 192.667 68.9713 192.667 73.985C192.667 84.22 180.593 94.5736 161.132 101.011C147.366 105.58 128.973 108.102 109.363 108.102ZM109.363 47.285C90.169 47.285 71.1823 50.0736 57.2983 54.9093C40.6257 60.724 33.1497 68.6746 33.1497 73.985C33.1497 79.503 41.1893 88.1953 58.8113 94.2176C71.746 98.638 89.2493 100.982 109.363 100.982C128.231 100.982 145.824 98.6083 158.907 94.2473C177.211 88.1656 185.577 79.4733 185.577 73.985C185.577 71.1666 183.441 67.844 179.555 64.6103C175.075 60.8723 168.548 57.4606 160.746 54.761C146.714 49.955 128.469 47.285 109.363 47.285Z" fill="#00DF5E"/>
<path d="M75.3374 148.211C72.3114 148.211 69.6414 147.558 67.3867 146.253C58.8724 141.328 55.9057 127.148 59.4954 108.309C62.4324 92.853 69.6117 74.697 79.7281 57.164C89.6664 39.9573 101.592 24.8273 113.37 14.5923C120.253 8.59964 127.224 4.20897 133.514 1.89497C140.367 -0.626692 146.3 -0.626692 150.631 1.86531C159.502 6.96797 162.439 22.632 158.285 42.6866C155.348 56.9266 148.347 74.1036 138.557 91.1026C128.114 109.199 116.841 123.795 105.953 133.318C98.8927 139.489 91.6244 143.998 84.9791 146.342C81.5081 147.588 78.2448 148.211 75.3374 148.211ZM82.7837 58.944L85.8691 60.724C76.2868 77.3373 69.1964 95.167 66.4671 109.644C63.1741 126.999 66.3484 137.442 70.9171 140.082C72.0444 140.735 73.5277 141.091 75.3374 141.091C81.2411 141.091 90.5268 137.353 101.266 127.978C111.56 118.989 122.329 104.987 132.386 87.5723C141.82 71.226 148.525 54.7906 151.314 41.2923C155.2 22.3946 151.848 10.8246 147.071 8.06564C144.639 6.67131 140.693 6.84931 135.946 8.59964C130.458 10.617 124.258 14.5626 118.028 19.9916C106.843 29.7223 95.4218 44.1996 85.8691 60.7536L82.7837 58.944Z" fill="#00DF5E"/>
<path d="M142.881 148.3C134.812 148.3 124.577 143.435 113.897 134.238C101.971 123.973 89.8371 108.695 79.6911 91.162C69.7231 73.9553 62.6031 56.0663 59.6068 40.7287C57.8564 31.7693 57.5301 23.5517 58.6574 16.936C59.9034 9.72699 62.8404 4.59466 67.2014 2.07299C76.0421 -3.05934 91.0831 2.22132 106.391 15.8383C117.249 25.48 128.641 40.1353 138.461 57.1047C148.933 75.2013 155.964 92.2597 158.753 106.44C160.562 115.637 160.859 124.181 159.583 131.123C158.219 138.51 155.133 143.761 150.683 146.342C148.458 147.647 145.818 148.3 142.881 148.3ZM85.8618 87.602C95.4738 104.215 107.4 119.256 118.554 128.839C131.934 140.349 142.555 142.841 147.153 140.171C151.929 137.412 155.43 126.109 151.811 107.835C149.141 94.4253 142.406 78.1087 132.32 60.6943C122.856 44.348 111.968 30.3157 101.674 21.1783C87.2561 8.36232 75.5674 5.48466 70.7911 8.24366C68.3584 9.63799 66.5488 13.1683 65.6884 18.1523C64.7094 23.9077 65.0061 31.265 66.6081 39.364C69.4561 53.9303 76.2794 71.048 85.8618 87.602Z" fill="#00DF5E"/>
<path d="M2.87642 190V163.818H12.2088C14.2372 163.818 15.9205 164.168 17.2585 164.866C18.6051 165.565 19.6108 166.533 20.2756 167.768C20.9403 168.996 21.2727 170.415 21.2727 172.026C21.2727 173.628 20.9361 175.038 20.2628 176.257C19.598 177.467 18.5923 178.409 17.2457 179.082C15.9077 179.756 14.2244 180.092 12.196 180.092H5.12642V176.692H11.8381C13.1165 176.692 14.1563 176.509 14.9574 176.142C15.767 175.776 16.3594 175.243 16.7344 174.544C17.1094 173.845 17.2969 173.006 17.2969 172.026C17.2969 171.037 17.1051 170.18 16.7216 169.456C16.3466 168.732 15.7543 168.178 14.9446 167.794C14.1435 167.402 13.0909 167.206 11.7869 167.206H6.8267V190H2.87642ZM15.8011 178.188L22.2699 190H17.7699L11.429 178.188H15.8011ZM33.9897 190.396C32.055 190.396 30.3888 189.983 28.9911 189.156C27.6019 188.321 26.5281 187.149 25.7695 185.641C25.0195 184.124 24.6445 182.347 24.6445 180.31C24.6445 178.298 25.0195 176.526 25.7695 174.991C26.5281 173.457 27.5849 172.26 28.94 171.399C30.3036 170.538 31.8974 170.108 33.7212 170.108C34.8292 170.108 35.9031 170.291 36.9428 170.658C37.9826 171.024 38.9158 171.599 39.7425 172.384C40.5692 173.168 41.2212 174.186 41.6985 175.439C42.1758 176.683 42.4144 178.196 42.4144 179.977V181.332H26.805V178.469H38.6687C38.6687 177.463 38.4641 176.572 38.055 175.797C37.646 175.013 37.0707 174.395 36.3292 173.943C35.5962 173.491 34.7354 173.266 33.7468 173.266C32.6729 173.266 31.7354 173.53 30.9343 174.058C30.1417 174.578 29.5281 175.26 29.0934 176.104C28.6673 176.939 28.4542 177.847 28.4542 178.827V181.064C28.4542 182.376 28.6843 183.493 29.1445 184.413C29.6133 185.334 30.2653 186.037 31.1005 186.523C31.9357 187 32.9116 187.239 34.0281 187.239C34.7525 187.239 35.413 187.136 36.0096 186.932C36.6062 186.719 37.1218 186.403 37.5565 185.986C37.9911 185.568 38.3235 185.053 38.5536 184.439L42.1715 185.091C41.8817 186.156 41.3619 187.089 40.6119 187.891C39.8704 188.683 38.9371 189.301 37.8121 189.744C36.6957 190.179 35.4215 190.396 33.9897 190.396ZM52.37 190.435C51.1257 190.435 50.0007 190.205 48.995 189.744C47.9893 189.276 47.1925 188.598 46.6044 187.712C46.0249 186.825 45.7351 185.739 45.7351 184.452C45.7351 183.344 45.9482 182.432 46.3743 181.716C46.8004 181 47.3757 180.433 48.1001 180.016C48.8246 179.598 49.6342 179.283 50.5291 179.07C51.424 178.857 52.3359 178.695 53.2649 178.584C54.4411 178.447 55.3956 178.337 56.1286 178.251C56.8615 178.158 57.3942 178.009 57.7266 177.804C58.0589 177.599 58.2251 177.267 58.2251 176.807V176.717C58.2251 175.601 57.9098 174.736 57.2791 174.122C56.657 173.509 55.728 173.202 54.4922 173.202C53.2053 173.202 52.1911 173.487 51.4496 174.058C50.7166 174.621 50.2095 175.247 49.9283 175.938L46.3359 175.119C46.7621 173.926 47.3842 172.963 48.2024 172.23C49.0291 171.489 49.9794 170.952 51.0533 170.619C52.1271 170.278 53.2564 170.108 54.4411 170.108C55.2251 170.108 56.0561 170.202 56.9339 170.389C57.8203 170.568 58.647 170.901 59.4141 171.386C60.1896 171.872 60.8246 172.567 61.3189 173.47C61.8132 174.365 62.0604 175.528 62.0604 176.96V190H58.3274V187.315H58.174C57.9268 187.81 57.5561 188.295 57.0618 188.773C56.5675 189.25 55.9325 189.646 55.157 189.962C54.3814 190.277 53.4524 190.435 52.37 190.435ZM53.201 187.366C54.2578 187.366 55.1612 187.158 55.9112 186.74C56.6697 186.322 57.245 185.777 57.6371 185.104C58.0376 184.422 58.2379 183.693 58.2379 182.918V180.386C58.1016 180.523 57.8374 180.651 57.4453 180.77C57.0618 180.881 56.6229 180.979 56.1286 181.064C55.6342 181.141 55.1527 181.213 54.6839 181.281C54.2152 181.341 53.8232 181.392 53.5078 181.435C52.7663 181.528 52.0888 181.686 51.4751 181.908C50.87 182.129 50.3842 182.449 50.0178 182.866C49.6598 183.276 49.4808 183.821 49.4808 184.503C49.4808 185.449 49.8303 186.165 50.5291 186.651C51.228 187.128 52.1186 187.366 53.201 187.366ZM75.4229 190.396C73.5224 190.396 71.886 189.966 70.5138 189.105C69.1502 188.236 68.1019 187.038 67.369 185.513C66.636 183.987 66.2695 182.24 66.2695 180.271C66.2695 178.277 66.6445 176.517 67.3945 174.991C68.1445 173.457 69.2013 172.26 70.565 171.399C71.9286 170.538 73.5352 170.108 75.3846 170.108C76.8761 170.108 78.2056 170.385 79.3732 170.939C80.5408 171.484 81.4826 172.251 82.1985 173.24C82.9229 174.229 83.3533 175.384 83.4897 176.705H79.7695C79.565 175.784 79.0962 174.991 78.3633 174.327C77.6388 173.662 76.6673 173.33 75.4485 173.33C74.3832 173.33 73.4499 173.611 72.6488 174.173C71.8562 174.727 71.2383 175.52 70.7951 176.551C70.3519 177.574 70.1303 178.784 70.1303 180.182C70.1303 181.614 70.3477 182.849 70.7823 183.889C71.217 184.929 71.8306 185.734 72.6232 186.305C73.4244 186.876 74.3661 187.162 75.4485 187.162C76.1729 187.162 76.8292 187.03 77.4173 186.766C78.0138 186.493 78.5124 186.105 78.913 185.602C79.3221 185.099 79.6076 184.494 79.7695 183.787H83.4897C83.3533 185.057 82.94 186.19 82.2496 187.188C81.5593 188.185 80.6346 188.969 79.4755 189.54C78.3249 190.111 76.9741 190.396 75.4229 190.396ZM96.7436 170.364V173.432H86.0178V170.364H96.7436ZM88.8942 165.659H92.7166V184.234C92.7166 184.976 92.8274 185.534 93.049 185.909C93.2706 186.276 93.5561 186.527 93.9055 186.663C94.2635 186.791 94.6513 186.855 95.0689 186.855C95.3757 186.855 95.6442 186.834 95.8743 186.791C96.1044 186.749 96.2834 186.714 96.4112 186.689L97.1016 189.847C96.88 189.932 96.5646 190.017 96.1555 190.102C95.7464 190.196 95.2351 190.247 94.6214 190.256C93.6158 190.273 92.6783 190.094 91.8089 189.719C90.9396 189.344 90.2365 188.764 89.6996 187.98C89.1626 187.196 88.8942 186.212 88.8942 185.027V165.659ZM131.938 163.818V190H128.308L114.999 170.798H114.756V190H110.806V163.818H114.462L127.783 183.045H128.026V163.818H131.938ZM143.108 190.435C141.864 190.435 140.739 190.205 139.733 189.744C138.728 189.276 137.931 188.598 137.343 187.712C136.763 186.825 136.473 185.739 136.473 184.452C136.473 183.344 136.686 182.432 137.113 181.716C137.539 181 138.114 180.433 138.838 180.016C139.563 179.598 140.373 179.283 141.267 179.07C142.162 178.857 143.074 178.695 144.003 178.584C145.179 178.447 146.134 178.337 146.867 178.251C147.6 178.158 148.132 178.009 148.465 177.804C148.797 177.599 148.963 177.267 148.963 176.807V176.717C148.963 175.601 148.648 174.736 148.017 174.122C147.395 173.509 146.466 173.202 145.23 173.202C143.944 173.202 142.929 173.487 142.188 174.058C141.455 174.621 140.948 175.247 140.667 175.938L137.074 175.119C137.5 173.926 138.123 172.963 138.941 172.23C139.767 171.489 140.718 170.952 141.792 170.619C142.865 170.278 143.995 170.108 145.179 170.108C145.963 170.108 146.794 170.202 147.672 170.389C148.559 170.568 149.385 170.901 150.152 171.386C150.928 171.872 151.563 172.567 152.057 173.47C152.551 174.365 152.799 175.528 152.799 176.96V190H149.066V187.315H148.912C148.665 187.81 148.294 188.295 147.8 188.773C147.306 189.25 146.671 189.646 145.895 189.962C145.12 190.277 144.191 190.435 143.108 190.435ZM143.939 187.366C144.996 187.366 145.9 187.158 146.65 186.74C147.408 186.322 147.983 185.777 148.375 185.104C148.776 184.422 148.976 183.693 148.976 182.918V180.386C148.84 180.523 148.576 180.651 148.184 180.77C147.8 180.881 147.361 180.979 146.867 181.064C146.373 181.141 145.891 181.213 145.422 181.281C144.953 181.341 144.561 181.392 144.246 181.435C143.505 181.528 142.827 181.686 142.213 181.908C141.608 182.129 141.123 182.449 140.756 182.866C140.398 183.276 140.219 183.821 140.219 184.503C140.219 185.449 140.569 186.165 141.267 186.651C141.966 187.128 142.857 187.366 143.939 187.366ZM167.056 170.364V173.432H156.33V170.364H167.056ZM159.207 165.659H163.029V184.234C163.029 184.976 163.14 185.534 163.362 185.909C163.583 186.276 163.869 186.527 164.218 186.663C164.576 186.791 164.964 186.855 165.381 186.855C165.688 186.855 165.957 186.834 166.187 186.791C166.417 186.749 166.596 186.714 166.724 186.689L167.414 189.847C167.192 189.932 166.877 190.017 166.468 190.102C166.059 190.196 165.548 190.247 164.934 190.256C163.928 190.273 162.991 190.094 162.121 189.719C161.252 189.344 160.549 188.764 160.012 187.98C159.475 187.196 159.207 186.212 159.207 185.027V165.659ZM171.284 190V170.364H175.107V190H171.284ZM173.215 167.334C172.55 167.334 171.979 167.112 171.502 166.669C171.033 166.217 170.799 165.68 170.799 165.058C170.799 164.428 171.033 163.891 171.502 163.447C171.979 162.996 172.55 162.77 173.215 162.77C173.88 162.77 174.446 162.996 174.915 163.447C175.392 163.891 175.631 164.428 175.631 165.058C175.631 165.68 175.392 166.217 174.915 166.669C174.446 167.112 173.88 167.334 173.215 167.334ZM197.048 170.364L189.927 190H185.836L178.702 170.364H182.806L187.779 185.474H187.984L192.944 170.364H197.048ZM208.435 190.396C206.5 190.396 204.834 189.983 203.436 189.156C202.047 188.321 200.973 187.149 200.215 185.641C199.465 184.124 199.09 182.347 199.09 180.31C199.09 178.298 199.465 176.526 200.215 174.991C200.973 173.457 202.03 172.26 203.385 171.399C204.749 170.538 206.343 170.108 208.167 170.108C209.275 170.108 210.348 170.291 211.388 170.658C212.428 171.024 213.361 171.599 214.188 172.384C215.015 173.168 215.667 174.186 216.144 175.439C216.621 176.683 216.86 178.196 216.86 179.977V181.332H201.25V178.469H213.114C213.114 177.463 212.909 176.572 212.5 175.797C212.091 175.013 211.516 174.395 210.775 173.943C210.042 173.491 209.181 173.266 208.192 173.266C207.118 173.266 206.181 173.53 205.38 174.058C204.587 174.578 203.973 175.26 203.539 176.104C203.113 176.939 202.9 177.847 202.9 178.827V181.064C202.9 182.376 203.13 183.493 203.59 184.413C204.059 185.334 204.711 186.037 205.546 186.523C206.381 187 207.357 187.239 208.473 187.239C209.198 187.239 209.858 187.136 210.455 186.932C211.051 186.719 211.567 186.403 212.002 185.986C212.436 185.568 212.769 185.053 212.999 184.439L216.617 185.091C216.327 186.156 215.807 187.089 215.057 187.891C214.316 188.683 213.382 189.301 212.257 189.744C211.141 190.179 209.867 190.396 208.435 190.396Z" fill="#00DF5E"/>
</svg>
