<svg width="365" height="365" viewBox="0 0 365 365" fill="none" xmlns="http://www.w3.org/2000/svg">
<path d="M198.915 0.106661C197.583 -0.150366 196.203 0.0604273 195.008 0.70342C193.813 1.34641 192.877 2.38218 192.357 3.63569C191.838 4.8892 191.767 6.28359 192.157 7.58323C192.547 8.88287 193.374 10.0081 194.497 10.7687C208.353 21.9162 219.789 35.7738 228.104 51.4935C236.419 67.2132 241.439 84.4643 242.857 102.191C244.275 119.918 242.06 137.748 236.35 154.589C230.639 171.431 221.551 186.93 209.643 200.138C197.736 213.346 183.258 223.986 167.096 231.405C150.934 238.825 133.429 242.869 115.65 243.289C97.8717 243.709 80.1944 240.498 63.7001 233.85C47.2057 227.203 32.2413 217.26 19.7224 204.629C16.567 201.407 13.5786 198.025 10.7687 194.497C10.0081 193.374 8.88287 192.547 7.58323 192.157C6.28359 191.767 4.8892 191.838 3.63569 192.357C2.38218 192.877 1.34641 193.813 0.70342 195.008C0.0604273 196.203 -0.150366 197.583 0.106661 198.915C3.33252 233.434 16.3179 266.32 37.5447 293.731C58.7716 321.142 87.3627 341.944 119.976 353.704C152.589 365.465 187.876 367.7 221.711 360.146C255.547 352.592 286.534 335.563 311.048 311.048C335.563 286.534 352.592 255.547 360.146 221.711C367.7 187.876 365.465 152.589 353.704 119.976C341.944 87.3627 321.142 58.7716 293.731 37.5447C266.32 16.3179 233.434 3.33252 198.915 0.106661V0.106661Z" fill="#F9F9F9"/>
</svg>
