<svg width="214" height="207" viewBox="0 0 214 207" fill="none" xmlns="http://www.w3.org/2000/svg">
<path d="M3.5625 128.25C1.596 128.25 0 126.654 0 124.688V10.6875C0 4.79512 4.79512 0 10.6875 0H203.062C208.955 0 213.75 4.79512 213.75 10.6875V21.375C213.75 23.3415 212.154 24.9375 210.188 24.9375C208.221 24.9375 206.625 23.3415 206.625 21.375V10.6875C206.625 8.72812 205.022 7.125 203.062 7.125H10.6875C8.72812 7.125 7.125 8.72812 7.125 10.6875V124.688C7.125 126.654 5.529 128.25 3.5625 128.25Z" fill="#00DF5E"/>
<path d="M106.875 206.625H67.6875C65.721 206.625 64.125 205.029 64.125 203.062C64.125 201.096 65.721 199.5 67.6875 199.5H74.8125C80.7049 199.5 85.5 194.705 85.5 188.812V171C85.5 169.034 87.096 167.438 89.0625 167.438C91.029 167.438 92.625 169.034 92.625 171V188.812C92.625 192.824 91.2926 196.522 89.0554 199.5H106.875C108.841 199.5 110.438 201.096 110.438 203.062C110.438 205.029 108.841 206.625 106.875 206.625Z" fill="#00DF5E"/>
<path d="M103.312 171H10.6875C4.79512 171 0 166.205 0 160.312V138.938C0 136.971 1.596 135.375 3.5625 135.375H103.312C105.279 135.375 106.875 136.971 106.875 138.938C106.875 140.904 105.279 142.5 103.312 142.5H7.125V160.312C7.125 162.272 8.72812 163.875 10.6875 163.875H103.312C105.279 163.875 106.875 165.471 106.875 167.438C106.875 169.404 105.279 171 103.312 171Z" fill="#00DF5E"/>
<path d="M146.062 49.875H181.688C183.654 49.875 185.25 48.279 185.25 46.3125C185.25 44.346 183.654 42.75 181.688 42.75H146.062C144.096 42.75 142.5 44.346 142.5 46.3125C142.5 48.279 144.096 49.875 146.062 49.875Z" fill="#00DF5E"/>
<path d="M160.312 192.375H167.438C169.404 192.375 171 190.779 171 188.812C171 186.846 169.404 185.25 167.438 185.25H160.312C158.346 185.25 156.75 186.846 156.75 188.812C156.75 190.779 158.346 192.375 160.312 192.375Z" fill="#00DF5E"/>
<path d="M195.938 206.625H131.812C121.987 206.625 114 198.638 114 188.812V46.3125C114 36.4871 121.987 28.5 131.812 28.5H195.938C205.763 28.5 213.75 36.4871 213.75 46.3125V188.812C213.75 198.638 205.763 206.625 195.938 206.625ZM131.812 35.625C125.92 35.625 121.125 40.4201 121.125 46.3125V188.812C121.125 194.705 125.92 199.5 131.812 199.5H195.938C201.83 199.5 206.625 194.705 206.625 188.812V46.3125C206.625 40.4201 201.83 35.625 195.938 35.625H131.812Z" fill="#00DF5E"/>
</svg>
